<svg data-v-423bf9ae="" xmlns="http://www.w3.org/2000/svg" viewBox="0 0 193.91304580686074 60" class="font"><!----><!----><!----><g data-v-423bf9ae="" id="34cf7aa2-be50-4b20-b652-124f3d786fca" fill="#DAA8DB" transform="matrix(5.434782627474683,0,0,5.434782627474683,-7.173912003871095,-7.391303616645729)"><path d="M4.69 5.35L4.69 5.35L8.25 10.50L6.62 10.50L3.49 5.99L2.72 5.99L2.72 10.50L1.32 10.50L1.32 1.36L2.72 1.36L2.72 4.76L3.49 4.76L5.99 1.36L7.66 1.36L4.69 5.35ZM12.73 3.19L12.73 3.19Q13.27 3.19 13.91 3.35Q14.55 3.51 15.09 3.93Q15.64 4.35 16.01 5.08Q16.38 5.81 16.38 6.94L16.38 6.94Q16.38 8.08 16.01 8.80Q15.64 9.52 15.09 9.93Q14.55 10.35 13.91 10.51Q13.27 10.67 12.73 10.67L12.73 10.67Q12.19 10.67 11.56 10.51Q10.93 10.35 10.39 9.93Q9.84 9.52 9.48 8.80Q9.11 8.08 9.11 6.94L9.11 6.94Q9.11 5.81 9.48 5.08Q9.84 4.35 10.39 3.93Q10.93 3.51 11.56 3.35Q12.19 3.19 12.73 3.19ZM12.73 9.60L12.73 9.60Q13.19 9.60 13.60 9.44Q14.01 9.28 14.32 8.95Q14.62 8.61 14.80 8.11Q14.98 7.62 14.98 6.94L14.98 6.94Q14.98 6.27 14.80 5.77Q14.62 5.26 14.32 4.93Q14.01 4.59 13.60 4.42Q13.19 4.26 12.73 4.26L12.73 4.26Q12.28 4.26 11.88 4.42Q11.48 4.59 11.18 4.93Q10.88 5.26 10.70 5.77Q10.53 6.27 10.53 6.94L10.53 6.94Q10.53 7.62 10.70 8.11Q10.88 8.61 11.18 8.95Q11.48 9.28 11.88 9.44Q12.28 9.60 12.73 9.60ZM21.90 10.67L21.90 10.67Q21.20 10.67 20.55 10.41Q19.89 10.15 19.46 9.58L19.46 9.58L19.46 12.40L18.14 12.40L18.14 3.36L19.25 3.36L19.46 4.37L19.46 4.38Q19.66 4.05 19.99 3.79L19.99 3.79Q20.27 3.57 20.74 3.38Q21.21 3.19 21.90 3.19L21.90 3.19Q22.61 3.19 23.18 3.49Q23.74 3.79 24.14 4.30Q24.53 4.80 24.73 5.48Q24.93 6.16 24.93 6.92L24.93 6.92Q24.93 7.67 24.73 8.35Q24.53 9.03 24.14 9.55Q23.74 10.07 23.18 10.37Q22.61 10.67 21.90 10.67ZM21.60 4.26L21.60 4.26Q21.18 4.26 20.80 4.42Q20.41 4.58 20.12 4.91Q19.82 5.24 19.64 5.74Q19.46 6.24 19.46 6.92L19.46 6.92Q19.46 7.59 19.64 8.09Q19.82 8.60 20.12 8.93Q20.41 9.27 20.80 9.44Q21.18 9.60 21.60 9.60L21.60 9.60Q21.99 9.60 22.34 9.44Q22.69 9.27 22.96 8.93Q23.23 8.60 23.38 8.09Q23.53 7.59 23.53 6.92L23.53 6.92Q23.53 6.24 23.38 5.74Q23.23 5.24 22.96 4.91Q22.69 4.58 22.34 4.42Q21.99 4.26 21.60 4.26ZM29.51 3.19L29.51 3.19Q30.28 3.23 30.88 3.51L30.88 3.51Q31.14 3.64 31.39 3.82Q31.64 4.00 31.84 4.27Q32.03 4.54 32.15 4.89Q32.27 5.25 32.27 5.73L32.27 5.73L32.27 10.50L31.04 10.50L30.87 9.63Q30.87 9.63 30.73 9.80Q30.59 9.97 30.32 10.16Q30.06 10.35 29.67 10.51Q29.29 10.67 28.81 10.67L28.81 10.67Q27.65 10.67 26.94 10.14Q26.22 9.62 26.22 8.46L26.22 8.46Q26.22 7.78 26.54 7.34Q26.87 6.90 27.34 6.64Q27.80 6.38 28.33 6.29Q28.85 6.19 29.26 6.19L29.26 6.19L30.95 6.19L30.95 5.71Q30.90 5.07 30.61 4.75Q30.32 4.42 29.91 4.32Q29.50 4.21 29.02 4.29Q28.53 4.37 28.11 4.50Q27.69 4.63 27.38 4.78Q27.08 4.93 26.99 4.98L26.99 4.98L26.99 3.86Q27.38 3.68 27.80 3.53L27.80 3.53Q28.17 3.40 28.62 3.30Q29.06 3.19 29.51 3.19ZM28.92 9.60L28.92 9.60Q29.76 9.60 30.30 9.21Q30.83 8.81 30.95 8.16L30.95 8.16L30.95 7.14L30.21 7.14Q29.95 7.14 29.51 7.16Q29.06 7.18 28.64 7.29Q28.22 7.41 27.92 7.67Q27.61 7.92 27.61 8.40L27.61 8.40Q27.61 8.69 27.73 8.92Q27.86 9.14 28.05 9.30Q28.24 9.45 28.48 9.53Q28.71 9.60 28.92 9.60ZM37.00 9.52L37.00 10.50Q36.78 10.58 36.50 10.63Q36.22 10.67 35.98 10.67L35.98 10.67Q35.27 10.67 34.89 10.25Q34.51 9.83 34.51 9.03L34.51 9.03L34.51 1.62L35.83 1.62L35.83 9.00Q35.83 9.30 35.93 9.44Q36.04 9.59 36.29 9.59L36.29 9.59Q36.43 9.59 36.66 9.57Q36.89 9.55 37.00 9.52L37.00 9.52Z"></path></g><!----><!----></svg>